<?xml version="1.0" standalone="no"?>
<!DOCTYPE svg PUBLIC "-//W3C//DTD SVG 20010904//EN"
 "http://www.w3.org/TR/2001/REC-SVG-20010904/DTD/svg10.dtd">
<svg version="1.0" xmlns="http://www.w3.org/2000/svg"
 width="260.000000pt" height="260.000000pt" viewBox="0 0 260.000000 260.000000"
 preserveAspectRatio="xMidYMid meet">

<g transform="translate(0.000000,260.000000) scale(0.100000,-0.100000)"
fill="#000000" stroke="none">
<path d="M775 2008 c-3 -7 -4 -328 -3 -713 l3 -700 185 -3 c102 -2 223 2 270
8 297 39 493 202 572 475 20 69 23 102 22 240 0 147 -2 167 -28 245 -40 123
-89 205 -170 285 -82 81 -143 117 -253 147 -67 18 -113 22 -335 26 -210 3
-259 1 -263 -10z m530 -153 c159 -43 283 -174 331 -352 21 -80 21 -277 0 -367
-50 -211 -205 -366 -396 -396 -36 -5 -120 -10 -187 -10 l-123 0 0 576 0 577
158 -6 c96 -3 180 -12 217 -22z"/>
</g>
</svg>
