<?xml version="1.0" standalone="no"?>
<!DOCTYPE svg PUBLIC "-//W3C//DTD SVG 20010904//EN"
 "http://www.w3.org/TR/2001/REC-SVG-20010904/DTD/svg10.dtd">
<svg version="1.0" xmlns="http://www.w3.org/2000/svg"
 width="1083.000000pt" height="1083.000000pt" viewBox="0 0 1083.000000 1083.000000"
 preserveAspectRatio="xMidYMid meet">

<g transform="translate(0.000000,1083.000000) scale(0.100000,-0.100000)"
fill="#000000" stroke="none">
<path d="M3350 5410 l0 -2940 1189 0 c753 0 1227 4 1292 10 454 46 818 214
1154 531 255 242 419 544 481 885 25 139 26 444 1 568 -101 501 -417 866 -911
1051 -98 36 -263 82 -380 105 l-59 12 130 67 c199 102 323 189 439 307 270
272 395 586 396 989 0 180 -19 309 -68 455 -64 191 -153 329 -303 473 -223
211 -498 332 -908 399 -136 22 -155 22 -1295 25 l-1158 4 0 -2941z m2182 2409
c238 -26 474 -114 617 -231 122 -100 224 -261 273 -433 20 -70 23 -102 23
-260 0 -157 -3 -191 -24 -265 -47 -175 -138 -327 -270 -453 -213 -203 -484
-312 -866 -347 -60 -5 -388 -10 -727 -10 l-618 0 0 1005 0 1005 745 0 c474 0
781 -4 847 -11z m118 -2543 c430 -63 711 -180 912 -379 182 -181 270 -406 271
-697 1 -148 -12 -242 -50 -365 -127 -406 -503 -709 -995 -804 -194 -37 -291
-41 -1079 -41 l-769 0 0 1156 0 1155 798 -4 c684 -3 813 -6 912 -21z"/>
</g>
</svg>
