<?xml version="1.0" standalone="no"?>
<!DOCTYPE svg PUBLIC "-//W3C//DTD SVG 20010904//EN"
 "http://www.w3.org/TR/2001/REC-SVG-20010904/DTD/svg10.dtd">
<svg version="1.0" xmlns="http://www.w3.org/2000/svg"
 width="260.000000pt" height="260.000000pt" viewBox="0 0 260.000000 260.000000"
 preserveAspectRatio="xMidYMid meet">

<g transform="translate(0.000000,260.000000) scale(0.100000,-0.100000)"
fill="#000000" stroke="none">
<path d="M763 2029 c-18 -19 -19 -1419 -1 -1437 19 -19 438 -16 536 4 346 71
542 331 542 716 0 179 -39 317 -127 450 -86 131 -214 219 -368 254 -96 22
-564 32 -582 13z m516 -184 c35 -9 86 -28 113 -42 102 -56 201 -195 227 -321
18 -88 14 -268 -9 -356 -47 -184 -172 -319 -335 -361 -39 -10 -105 -15 -197
-15 l-138 0 0 555 0 555 138 0 c87 0 160 -6 201 -15z"/>
</g>
</svg>
